<?xml version="1.0" encoding="utf-8"?>


<svg version="1.1" xmlns="http://www.w3.org/2000/svg" xmlns:xlink="http://www.w3.org/1999/xlink" x="0px" y="0px" viewBox="0 0 1000 1000" enable-background="new 0 0 1000 1000" xml:space="preserve">

<g><g transform="translate(0.000000,511.000000) scale(0.100000,-0.100000)"><path d="M1839,3385.3c-313.2-38.4-541.9-136.4-703.3-295.9c-224.8-224.8-261.3-374.7-286.3-1170.2c-26.9-828.2-73-1053-242.1-1210.6C495.8,604.8,372.9,552.9,221.1,539.5L100,529.9V120.6v-409.3l92.2-11.5C507.4-344.5,618.8-425.2,743.7-698c65.3-142.2,82.6-309.4,103.8-1005c21.1-605.3,40.4-739.8,134.5-941.6c171-367,541.9-528.4,1208.7-528.4h234.4v401.6v401.6l-59.6,11.5c-32.7,5.8-101.8,11.5-153.7,11.5c-215.2,0-365.1,67.2-432.4,194.1c-21.1,40.4-34.6,197.9-55.7,589.9c-42.3,799.4-71.1,995.4-184.5,1216.3C1475.8-217.6,1291.4-13.9,1178,55.2c-42.3,26.9-76.9,51.9-78.8,57.6c0,5.8,50,44.2,107.6,86.5c59.6,42.3,148,121.1,196,172.9c90.3,101.8,215.2,342,249.8,490c32.7,134.5,57.6,468.9,71.1,922.4c21.1,709.1,46.1,753.3,472.7,793.6l228.7,21.1v399.7v399.7l-263.3-1.9C2015.8,3394.9,1871.7,3389.2,1839,3385.3z"/><path d="M7574.9,2997.2v-399.7l186.4-13.4c251.7-17.3,336.3-40.4,409.3-117.2c75-76.9,84.6-149.9,115.3-822.4c30.7-728.3,61.5-897.4,203.7-1131.8c67.3-109.5,209.5-253.6,340.1-342c38.4-26.9,71.1-51.9,71.1-57.6S8870,86,8833.5,66.8C8720.1,5.3,8547.2-183,8472.3-323.3c-136.4-261.3-159.5-420.8-203.7-1398.9c-21.1-488.1-51.9-555.4-286.3-603.4c-55.7-11.5-138.3-21.1-182.5-21.1c-44.2,0-113.4-5.8-151.8-11.5l-73-13.5v-403.5v-403.5l332.4,11.5c180.6,5.8,388.2,25,457.3,40.4c415.1,94.1,666.8,342,749.4,741.7c9.6,48,26.9,349.7,36.5,672.5c9.6,322.8,26.9,651.4,38.4,730.2c59.6,422.8,224.8,616.8,574.6,674.5l136.4,23.1v407.4v407.4l-121.1,9.6c-244,21.1-405.5,136.4-515,368.9c-73,157.6-90.3,305.5-111.5,1001.1c-21.1,624.5-38.4,759-134.5,960.8c-171,367-541.9,528.4-1206.7,528.4h-236.3V2997.2z"/><path d="M4980.8,2830c0-186.4-146-753.2-280.6-1089.5c-134.5-336.3-368.9-741.7-490-851.3c-186.4-169.1-661-411.2-1068.4-545.7c-267.1-86.5-716.7-190.2-857-194.1l-61.5-1.9l57.6-15.4c32.7-9.6,178.7-38.4,324.7-67.3C3111.1-31.2,3643.4-240.7,4048.8-502c171-111.5,192.2-132.6,307.5-305.5c295.9-443.9,555.3-1152.9,616.8-1677.5c7.7-61.5,19.2-111.4,25-111.4c7.7,0,25,73,36.5,165.2c80.7,555.4,315.1,1177.9,613,1633.3c105.7,159.5,128.8,182.5,301.7,294c484.2,313.2,997.3,497.7,1750.5,628.3c71.1,11.5,61.5,15.4-105.7,40.4c-582.2,86.5-1201,315.1-1642.9,609.1c-169.1,113.4-203.7,146-294,280.6c-295.9,440-518.8,1022.3-611.1,1589.1C5011.5,2849.2,4980.8,2939.5,4980.8,2830z M5065.3,589.4c71.1-149.9,238.3-319,393.9-395.8l119.1-59.6l-111.4-51.9c-149.9-71.1-334.3-257.5-407.4-411.2l-57.6-119.1l-61.5,121.1C4863.6-173.4,4681,7.2,4533.1,80.2L4421.6,134l119.1,59.6c155.6,76.9,322.8,246,393.9,395.8c30.7,65.3,59.6,117.2,65.3,117.2S5034.6,654.8,5065.3,589.4z"/></g></g>
</svg>