<?xml version="1.0" encoding="UTF-8" standalone="no"?>
<!-- Created with Inkscape (http://www.inkscape.org/) -->

<svg
   version="1.1"
   id="svg2"
   xml:space="preserve"
   width="1600"
   height="1600"
   viewBox="0 0 1600 1600"
   sodipodi:docname="KeyShot_Icon_RGB.ai"
   xmlns:inkscape="http://www.inkscape.org/namespaces/inkscape"
   xmlns:sodipodi="http://sodipodi.sourceforge.net/DTD/sodipodi-0.dtd"
   xmlns="http://www.w3.org/2000/svg"
   xmlns:svg="http://www.w3.org/2000/svg"><defs
     id="defs6"><linearGradient
       x1="0"
       y1="0"
       x2="1"
       y2="0"
       gradientUnits="userSpaceOnUse"
       gradientTransform="matrix(0,986.88165,986.88165,0,605.96851,108.3068)"
       spreadMethod="pad"
       id="linearGradient26"><stop
         style="stop-opacity:1;stop-color:#0044ff"
         offset="0"
         id="stop22" /><stop
         style="stop-opacity:1;stop-color:#33ccff"
         offset="1"
         id="stop24" /></linearGradient><radialGradient
       fx="0"
       fy="0"
       cx="0"
       cy="0"
       r="1"
       gradientUnits="userSpaceOnUse"
       gradientTransform="matrix(518.33331,0,0,-518.33331,600.22223,599.66669)"
       spreadMethod="pad"
       id="radialGradient48"><stop
         style="stop-opacity:1;stop-color:#f2f2f2"
         offset="0"
         id="stop42" /><stop
         style="stop-opacity:1;stop-color:#f2f2f2"
         offset="0.95"
         id="stop44" /><stop
         style="stop-opacity:1;stop-color:#cccbcb"
         offset="1"
         id="stop46" /></radialGradient><linearGradient
       x1="0"
       y1="0"
       x2="1"
       y2="0"
       gradientUnits="userSpaceOnUse"
       gradientTransform="matrix(0,438.00958,438.00958,0,603.09528,381.70224)"
       spreadMethod="pad"
       id="linearGradient68"><stop
         style="stop-opacity:1;stop-color:#000000"
         offset="0"
         id="stop64" /><stop
         style="stop-opacity:1;stop-color:#555555"
         offset="1"
         id="stop66" /></linearGradient></defs><sodipodi:namedview
     id="namedview4"
     pagecolor="#ffffff"
     bordercolor="#666666"
     borderopacity="1.0"
     inkscape:pageshadow="2"
     inkscape:pageopacity="0.0"
     inkscape:pagecheckerboard="0" /><g
     id="g8"
     inkscape:groupmode="layer"
     inkscape:label="KeyShot_Icon_RGB"
     transform="matrix(1.3333333,0,0,-1.3333333,0,1600)"><g
       id="g10"><g
         id="g12"><g
           id="g18"><g
             id="g20"><path
               d="m 112.528,601.747 c 0,-272.52 220.921,-493.44 493.441,-493.44 v 0 c 272.519,0 493.44,220.92 493.44,493.44 v 0 c 0,272.52 -220.921,493.441 -493.44,493.441 v 0 c -272.52,0 -493.441,-220.921 -493.441,-493.441"
               style="fill:url(#linearGradient26);stroke:none"
               id="path28" /></g></g></g></g><g
       id="g30"><g
         id="g32"><g
           id="g38"><g
             id="g40"><path
               d="M 81.888,599.666 C 81.888,313.4 313.954,81.333 600.223,81.333 v 0 c 286.267,0 518.333,232.067 518.333,518.333 v 0 C 1118.556,885.934 886.49,1118 600.223,1118 v 0 C 313.954,1118 81.888,885.934 81.888,599.666 m 734.915,171.53 C 697.125,890.645 543.148,969.759 376.352,997.504 v 0 c -7.821,1.3 -9.627,11.732 -2.698,15.586 v 0 c 71.546,39.808 142.026,58.537 223.896,59.499 v 0 c 58.003,0.682 111.727,-8.423 166.266,-28.18 v 0 c 13.59,-4.922 20.873,-12.386 25.461,-26.091 v 0 c 26.468,-79.078 40.102,-157.646 41.822,-241.019 v 0 c 0.106,-5.129 -4.074,-8.568 -8.44,-8.569 v 0 c -2.053,0 -4.147,0.762 -5.856,2.466 m 40.794,-270.32 c 43.606,163.367 35.134,336.272 -24.238,494.594 v 0 c -2.784,7.425 5.347,14.205 12.15,10.131 v 0 c 70.248,-42.057 121.707,-93.73 163.476,-164.15 v 0 c 29.593,-49.891 48.568,-100.971 58.729,-158.081 v 0 c 2.531,-14.23 -0.292,-24.271 -9.867,-35.096 v 0 C 1002.598,585.815 941.373,534.723 870.031,491.547 v 0 c -1.413,-0.855 -2.897,-1.238 -4.331,-1.238 v 0 c -5.12,-0.001 -9.621,4.873 -8.103,10.567 M 131.24,608.197 c 1.298,81.864 20.32,152.267 60.42,223.649 v 0 c 28.412,50.573 63.161,92.547 107.538,129.902 v 0 c 11.058,9.306 21.165,11.882 35.327,9.003 v 0 c 81.716,-16.618 156.576,-44.094 229.637,-84.29 v 0 c 6.612,-3.637 5.425,-13.473 -1.861,-15.432 v 0 C 399.016,827.108 253.513,733.317 146.089,602.74 v 0 c -1.749,-2.126 -4.088,-3.073 -6.392,-3.073 v 0 c -4.333,-10e-4 -8.539,3.353 -8.457,8.53 M 360.681,195.814 c -70.247,42.057 -121.708,93.729 -163.475,164.149 v 0 c -29.592,49.892 -48.567,100.972 -58.729,158.081 v 0 c -2.532,14.23 0.29,24.272 9.866,35.096 v 0 c 55.249,62.461 116.475,113.551 187.816,156.727 v 0 c 6.455,3.906 14.379,-2.039 12.433,-9.33 v 0 C 304.987,537.171 313.46,364.266 372.831,205.944 v 0 c 2.205,-5.88 -2.435,-11.355 -7.841,-11.356 v 0 c -1.42,0 -2.893,0.378 -4.309,1.226 m 510.985,34.849 c -81.717,16.617 -156.576,44.094 -229.637,84.29 v 0 c -6.611,3.637 -5.425,13.473 1.861,15.432 v 0 c 163.285,43.921 308.788,137.712 416.213,268.289 v 0 c 5.038,6.124 14.973,2.473 14.847,-5.456 v 0 c -1.298,-81.866 -20.319,-152.267 -60.42,-223.649 v 0 C 986.118,318.995 951.37,277.022 906.992,239.666 v 0 c -8.223,-6.921 -15.924,-10.12 -25.156,-10.12 v 0 c -3.181,0 -6.542,0.379 -10.17,1.117 M 442.374,157.004 c -13.59,4.923 -20.873,12.388 -25.461,26.093 v 0 c -26.467,79.077 -40.1,157.645 -41.821,241.017 v 0 c -0.156,7.543 8.956,11.434 14.297,6.104 v 0 C 509.065,310.769 663.042,231.656 829.838,203.911 v 0 c 7.821,-1.3 9.628,-11.733 2.699,-15.588 v 0 C 760.991,148.516 690.511,129.788 608.64,128.825 v 0 c -2.011,-0.023 -4.024,-0.035 -6.025,-0.035 v 0 c -55.711,-0.001 -107.593,9.144 -160.241,28.214"
               style="fill:url(#radialGradient48);stroke:none"
               id="path50" /></g></g></g></g><g
       id="g52"><g
         id="g54"><g
           id="g60"><g
             id="g62"><path
               d="M 631.488,818.675 C 568.172,805.807 508.552,786.038 450.093,758.524 v 0 c -11.3,-5.316 -17.603,-12.403 -21.568,-24.244 v 0 C 408.01,673.012 395.321,611.497 389.92,547.113 v 0 c -1.045,-12.445 1.94,-21.447 10.214,-30.802 v 0 c 42.8,-48.4 89.731,-90.146 142.787,-127.018 v 0 c 10.255,-7.126 19.546,-9.042 31.782,-6.555 v 0 c 63.317,12.869 122.936,32.638 181.396,60.152 v 0 c 11.298,5.316 17.602,12.403 21.566,24.244 v 0 c 20.515,61.269 33.204,122.784 38.606,187.168 v 0 c 1.045,12.443 -1.941,21.446 -10.212,30.8 v 0 c -42.803,48.402 -89.733,90.147 -142.79,127.018 v 0 c -7.428,5.163 -14.352,7.591 -22.255,7.592 v 0 c -3.007,0 -6.154,-0.351 -9.526,-1.037"
               style="fill:url(#linearGradient68);stroke:none"
               id="path70" /></g></g></g></g></g></svg>
