<svg class="svg-icon" style="width: 1em; height: 1em;vertical-align: middle;fill: currentColor;overflow: hidden;" viewBox="0 0 1024 1024" version="1.1" xmlns="http://www.w3.org/2000/svg"><path d="M208 896c-17.7 0-32-14.3-32-32V160c0-17.7 14.3-32 32-32h543.3c17.7 0 32 14.3 32 32v288c0 17.7 14.3 32 32 32s32-14.3 32-32V128c0-35.3-28.7-64-64-64H176c-35.4 0-64 28.7-64 64v768c0 35.3 28.7 64 64 64h447.7c17.7 0 32-14.3 32-32s-14.3-32-32-32H208z"  /><path d="M671.3 256H287.1c-17.7 0-32 14.3-32 32s14.3 32 32 32h384.2c17.7 0 32-14.3 32-32s-14.3-32-32-32zM671.3 448H287.1c-17.7 0-32 14.3-32 32s14.3 32 32 32h384.2c17.7 0 32-14.3 32-32s-14.3-32-32-32zM479.2 640H287.1c-17.7 0-32 14.3-32 32s14.3 32 32 32h192.1c17.7 0 32-14.3 32-32s-14.3-32-32-32zM784.1 684.5l52.8 132.1-52.7 52.7-52.8-52.8 52.7-132M784 512L656.3 832l127.8 127.8L912 832 784 512z"  /></svg>